<svg width="98" height="52" viewBox="0 0 98 52" fill="none" xmlns="http://www.w3.org/2000/svg">
<path fill-rule="evenodd" clip-rule="evenodd" d="M36.5703 0.592773C36.018 0.592773 35.5703 1.04049 35.5703 1.59277V5.86773C35.5703 6.42001 36.018 6.86773 36.5703 6.86773H72.8973C83.0242 6.86773 90.9777 14.6644 90.9777 24.7572V24.7572C90.9777 25.0428 91.2092 25.2743 91.4948 25.2743H96.757C97.0425 25.2743 97.274 25.0428 97.274 24.7572V24.7572C97.274 11.2679 86.432 0.592773 72.8973 0.592773H36.5703Z" fill="#6B7B84" stroke="#80949F" stroke-width="0.5"/>
<path fill-rule="evenodd" clip-rule="evenodd" d="M7.10682 25.7127V25.7127C7.10682 25.4706 6.91059 25.2744 6.66853 25.2744H1.16436C0.922303 25.2744 0.726074 25.4706 0.726074 25.7127V25.7127C0.726074 39.3621 10.9493 50.6316 24.1687 51.3691L66.5104 51.4069C67.063 51.4073 67.5113 50.9595 67.5113 50.4069V45.8272C67.5113 45.275 67.0635 44.8272 66.5113 44.8272H25.6265C15.3903 44.7989 7.10682 36.2835 7.10682 25.7127Z" fill="#6B7B84" stroke="#80949F" stroke-width="0.5"/>
<path fill-rule="evenodd" clip-rule="evenodd" d="M28.1415 39.7929C30.8803 39.7929 33.1616 39.2608 35.4149 38.166L35.5704 38.0204V30.186L34.7273 31.2654C33.1049 33.0383 30.9259 34.0142 28.4608 34.0142C23.8692 34.0142 19.2575 31.0463 19.2575 25.3743C19.2575 21.0879 22.4381 16.5325 28.2993 16.5325C29.4688 16.5325 32.313 16.809 34.7232 19.3685L35.5704 20.4122V12.6132L35.4218 12.4658C33.1258 11.3152 30.7843 10.7559 28.1137 10.7559C23.5467 10.7559 19.9821 11.9582 17.1438 14.4294C15.3435 15.9782 12.3408 19.449 12.3408 25.2928C12.3408 29.6135 13.8793 32.988 17.1669 35.9149C20.2252 38.5967 23.6163 39.7929 28.1415 39.7929" fill="#6B7B84"/>
<path d="M28.1415 39.7929C30.8803 39.7929 33.1616 39.2608 35.4149 38.166L35.5704 38.0204V30.186L34.7273 31.2654C33.1049 33.0383 30.9259 34.0142 28.4608 34.0142C23.8692 34.0142 19.2575 31.0463 19.2575 25.3743C19.2575 21.0879 22.4381 16.5325 28.2993 16.5325C29.4688 16.5325 32.313 16.809 34.7232 19.3685L35.5704 20.4122V12.6132L35.4218 12.4658C33.1258 11.3152 30.7843 10.7559 28.1137 10.7559C23.5467 10.7559 19.9821 11.9582 17.1438 14.4294C15.3435 15.9782 12.3408 19.449 12.3408 25.2928C12.3408 29.6135 13.8793 32.988 17.1669 35.9149C20.2252 38.5967 23.6163 39.7929 28.1415 39.7929" stroke="#80949F" stroke-width="0.5"/>
<path fill-rule="evenodd" clip-rule="evenodd" d="M47.9113 17.2892H49.2756C50.527 17.2892 51.9534 17.3575 53.033 18.0933C53.5601 18.4699 54.4446 19.3416 54.4446 20.9249C54.4446 22.095 53.9275 23.1441 53.0735 23.7987C51.9785 24.5936 50.6769 24.548 49.6311 24.548H47.9113V17.2892ZM50.977 29.8183C54.2084 29.8183 56.7377 28.8863 58.4943 27.1303C60.655 24.974 60.9779 22.0078 60.9779 20.444C60.9779 18.7707 60.5813 15.5071 57.9212 13.144C55.7407 11.2333 53.4142 10.7559 50.1324 10.7559H41.3779V39.7929H48.0365V29.8183H50.977V29.8183Z" fill="#6B7B84"/>
<path d="M47.9113 17.2892V17.0392H47.6613V17.2892H47.9113ZM53.033 18.0933L53.1783 17.8899L53.1738 17.8868L53.033 18.0933ZM53.0735 23.7987L53.2204 24.0011L53.2256 23.9971L53.0735 23.7987ZM47.9113 24.548H47.6613V24.798H47.9113V24.548ZM58.4943 27.1303L58.3177 26.9534L58.3175 26.9535L58.4943 27.1303ZM57.9212 13.144L58.0872 12.9571L58.086 12.956L57.9212 13.144ZM41.3779 10.7559V10.5059H41.1279V10.7559H41.3779ZM41.3779 39.7929H41.1279V40.0429H41.3779V39.7929ZM48.0365 39.7929V40.0429H48.2865V39.7929H48.0365ZM48.0365 29.8183V29.5683H47.7865V29.8183H48.0365ZM47.9113 17.5392H49.2756V17.0392H47.9113V17.5392ZM49.2756 17.5392C50.5328 17.5392 51.884 17.6127 52.8922 18.2999L53.1738 17.8868C52.0228 17.1022 50.5213 17.0392 49.2756 17.0392V17.5392ZM52.8877 18.2968C53.3753 18.6451 54.1946 19.4499 54.1946 20.9249H54.6946C54.6946 19.2333 53.7449 18.2947 53.1783 17.8899L52.8877 18.2968ZM54.1946 20.9249C54.1946 22.0209 53.7109 22.9952 52.9214 23.6003L53.2256 23.9971C54.1442 23.293 54.6946 22.169 54.6946 20.9249H54.1946ZM52.9266 23.5964C51.9093 24.3349 50.6973 24.298 49.6311 24.298V24.798C50.6566 24.798 52.0477 24.8522 53.2203 24.001L52.9266 23.5964ZM49.6311 24.298H47.9113V24.798H49.6311V24.298ZM48.1613 24.548V17.2892H47.6613V24.548H48.1613ZM50.977 30.0683C54.2568 30.0683 56.8564 29.1212 58.671 27.3071L58.3175 26.9535C56.6191 28.6514 54.1599 29.5683 50.977 29.5683V30.0683ZM58.6709 27.3073C60.9029 25.0798 61.2279 22.0292 61.2279 20.444H60.7279C60.7279 21.9864 60.407 24.8683 58.3177 26.9534L58.6709 27.3073ZM61.2279 20.444C61.2279 18.7427 60.8263 15.3903 58.0872 12.9571L57.7552 13.3309C60.3363 15.6238 60.7279 18.7988 60.7279 20.444H61.2279ZM58.086 12.956C55.84 10.9879 53.4417 10.5059 50.1324 10.5059V11.0059C53.3867 11.0059 55.6415 11.4787 57.7564 13.332L58.086 12.956ZM50.1324 10.5059H41.3779V11.0059H50.1324V10.5059ZM41.1279 10.7559V39.7929H41.6279V10.7559H41.1279ZM41.3779 40.0429H48.0365V39.5429H41.3779V40.0429ZM48.2865 39.7929V29.8183H47.7865V39.7929H48.2865ZM48.0365 30.0683H50.977V29.5683H48.0365V30.0683Z" fill="#80949F"/>
<path fill-rule="evenodd" clip-rule="evenodd" d="M80.953 24.4692C79.5053 23.1865 77.4846 22.443 75.1911 21.6718C73.5569 21.1031 72.6565 20.7899 72.0562 20.2426C71.5824 19.8404 71.3712 19.4038 71.3712 18.8267C71.3712 17.5627 72.2301 16.2118 74.6414 16.2118C76.2801 16.2118 77.6521 16.9125 78.7197 18.2935L79.1435 18.8419L82.6597 14.3661L82.3392 14.045C80.1886 11.8929 77.3548 10.7559 74.1439 10.7559C67.6657 10.7559 64.7658 14.9704 64.7658 19.1473C64.7658 21.3887 65.5651 23.1965 67.1367 24.518C68.5437 25.7239 70.2595 26.3996 71.9054 26.9512L72.0914 27.0128C73.553 27.4959 75.0646 27.9959 75.9674 28.8039C76.5955 29.381 76.8754 30.0081 76.8754 30.8372C76.8754 32.7373 75.379 34.0142 73.152 34.0142C71.3916 34.0142 69.0735 33.1513 67.8471 30.7301L67.5263 30.0958L63.1558 34.1415L63.4135 34.5061C64.8079 36.4805 67.9545 39.7929 73.3594 39.7929C79.3191 39.7929 83.4817 35.9613 83.4817 30.4756C83.4817 27.3379 82.1051 25.4757 80.953 24.4692" fill="#6B7B84"/>
<path d="M80.953 24.4692C79.5053 23.1865 77.4846 22.443 75.1911 21.6718C73.5569 21.1031 72.6565 20.7899 72.0562 20.2426C71.5824 19.8404 71.3712 19.4038 71.3712 18.8267C71.3712 17.5627 72.2301 16.2118 74.6414 16.2118C76.2801 16.2118 77.6521 16.9125 78.7197 18.2935L79.1435 18.8419L82.6597 14.3661L82.3392 14.045C80.1886 11.8929 77.3548 10.7559 74.1439 10.7559C67.6657 10.7559 64.7658 14.9704 64.7658 19.1473C64.7658 21.3887 65.5651 23.1965 67.1367 24.518C68.5437 25.7239 70.2595 26.3996 71.9054 26.9512L72.0914 27.0128C73.553 27.4959 75.0646 27.9959 75.9674 28.8039C76.5955 29.381 76.8754 30.0081 76.8754 30.8372C76.8754 32.7373 75.379 34.0142 73.152 34.0142C71.3916 34.0142 69.0735 33.1513 67.8471 30.7301L67.5263 30.0958L63.1558 34.1415L63.4135 34.5061C64.8079 36.4805 67.9545 39.7929 73.3594 39.7929C79.3191 39.7929 83.4817 35.9613 83.4817 30.4756C83.4817 27.3379 82.1051 25.4757 80.953 24.4692" stroke="#80949F" stroke-width="0.5"/>
</svg>
